<?xml version="1.0" encoding="utf-8"?>
<!-- Generator: Adobe Illustrator 24.0.0, SVG Export Plug-In . SVG Version: 6.00 Build 0)  -->
<svg version="1.1" id="Capa_1" xmlns="http://www.w3.org/2000/svg" xmlns:xlink="http://www.w3.org/1999/xlink" x="0px" y="0px"
	 viewBox="0 0 330 400" style="enable-background:new 0 0 330 400;" xml:space="preserve">
<style type="text/css">
	.st0{fill:#5B8C85;}
	.st1{fill:#ECCE6D;}
</style>
<g>
	<path class="st1" d="M308.48,382H21.52c-1.94,0-3.52-1.58-3.52-3.52v-20.96c0-1.94,1.58-3.52,3.52-3.52h286.96
		c1.94,0,3.52,1.58,3.52,3.52v20.96C312,380.42,310.42,382,308.48,382z"/>
	<g>
		<path class="st0" d="M198.03,251.91c-11.21,12.66-54.14,11.43-66.54,0c-26.94-24.85-40.03-120.32-15.97-148.12
			c16.39-18.93,80.45-17.29,98.47,0C240.46,129.17,222.4,224.39,198.03,251.91z"/>
		<ellipse class="st0" cx="166.09" cy="51.67" rx="31.94" ry="32.92"/>
		<path class="st0" d="M266.71,256.86c1.05-1.52,2.13-2.18,4.82-2.29c11.29-0.49,22.56-1.13,34.1-1.73c0.5-8.88,1-17.64,1.51-26.63
			c-11.37-0.95-22.25-1.9-33.15-2.74c-2.29-0.18-3.33-0.68-3.96-2.13c-1.57-3.57-2.58-7.45-5.64-10.48
			c-4.97-4.92-2.54-8.15,3.56-11.82c5.95-3.58,10.98-7.76,16.61-11.81c-9.39-6.61-18.57-13.06-27.85-19.59
			c-9.5,4.28-18.69,8.36-27.75,12.55c-2.03,0.94-3.45,0.96-5.63,0.22c-7.29-2.46-14.58-4.97-22.22-6.96
			c-4.07-1.06-5.39-2.42-5.49-5.06c-0.25-6.19-1.01-12.36-1.58-18.73c-14.2-0.1-28.09-0.19-42.12-0.29
			c-0.32,1.18-0.58,2.07-0.81,2.96c-1.52,5.91-2.97,11.82-4.63,17.72c-0.19,0.69-1.28,1.62-2.29,1.86
			c-8.99,2.13-18.03,4.18-27.13,6.12c-1.19,0.25-3.09,0.04-4.09-0.43c-3.98-1.87-7.72-3.95-11.57-5.92
			c-4.84-2.48-9.71-4.93-14.68-7.45c-10.5,5.93-20.63,11.66-30.93,17.48c6.68,5.72,13.1,11.29,19.68,16.79
			c1.34,1.12,1.13,1.83,0.03,3.03c-4.87,5.29-9.67,10.62-14,16.08c-1.39,1.76-2.65,2.52-5.79,2.63
			c-10.07,0.35-20.14,0.92-30.53,1.42c-0.79,8.91-1.57,17.64-2.35,26.43c11.4,0.95,22.29,1.89,33.2,2.73
			c2.02,0.16,2.77,0.66,3.36,1.86c2.15,4.4,3.76,9.03,7.18,13.02c3.43,3.99,2.29,6.47-2.73,9.52c-6.6,4.02-12.38,8.56-18.67,12.99
			c9.48,6.46,18.74,12.78,28.12,19.17c9.21-4.13,18.21-8.1,27.05-12.19c2.18-1.01,3.74-0.97,6.07-0.26
			c8.15,2.48,16.37,4.9,24.77,7.02c2.85,0.72,4.1,1.45,4.38,3.38c0.96,6.74,2.25,13.45,3.44,20.3c13.52,0.12,26.74,0.25,40.18,0.37
			c1.87-7.1,3.77-13.97,5.45-20.86c0.36-1.48,1.41-2.04,3.61-2.49c6.75-1.36,13.83-2.41,19.99-4.52c6.71-2.3,10.92-1.73,15.84,1.61
			c5.8,3.94,12.66,7.28,19.21,10.96c10.8-6.01,21.3-11.85,31.95-17.78c-0.87-0.82-1.56-1.5-2.31-2.16
			c-5.69-5.01-11.31-10.05-17.14-15c-1.62-1.38-1.61-2.38-0.33-3.95C259.48,266.93,263.21,261.92,266.71,256.86z M164.78,287.47
			c-41.23,0-74.66-21.53-74.66-48.09s33.43-48.09,74.66-48.09c41.23,0,74.66,21.53,74.66,48.09S206.02,287.47,164.78,287.47z"/>
	</g>
</g>
</svg>
