<?xml version="1.0" encoding="utf-8"?>
<!-- Generator: Adobe Illustrator 24.0.0, SVG Export Plug-In . SVG Version: 6.00 Build 0)  -->
<svg version="1.1" id="Capa_1" xmlns="http://www.w3.org/2000/svg" xmlns:xlink="http://www.w3.org/1999/xlink" x="0px" y="0px"
	 viewBox="0 0 71 74" style="enable-background:new 0 0 71 74;" xml:space="preserve">
<style type="text/css">
	.st0{fill:#5B8C85;}
	.st1{fill:#FFFFFF;}
</style>
<g>
	<g>
		<path class="st0" d="M35.52,60.13c-0.89,0-1.61-0.72-1.61-1.61V4.45c0-0.89,0.72-1.61,1.61-1.61s1.61,0.72,1.61,1.61v54.08
			C37.13,59.41,36.41,60.13,35.52,60.13z"/>
	</g>
	<g>
		<path class="st0" d="M35.61,61.61L15.58,41.58c-0.63-0.63-0.63-1.64,0-2.27c0.63-0.63,1.64-0.63,2.27,0l17.77,17.77L53.2,39.49
			c0.63-0.63,1.64-0.63,2.27,0c0.63,0.63,0.63,1.64,0,2.27L35.61,61.61z"/>
	</g>
	<g>
		<path class="st0" d="M35.52,72.76c-8.48,0-16.61-3.31-22.9-9.33c-6.23-5.96-10.17-14.09-11.1-22.9c-0.05-0.47,0.29-0.89,0.76-0.93
			c0.47-0.05,0.89,0.29,0.93,0.76c1.84,17.51,15.73,30.71,32.3,30.71s30.46-13.2,32.3-30.71c0.05-0.47,0.47-0.8,0.93-0.76
			c0.47,0.05,0.81,0.47,0.76,0.93c-0.93,8.81-4.87,16.94-11.1,22.9C52.13,69.45,44,72.76,35.52,72.76z"/>
	</g>
</g>
</svg>
