<?xml version="1.0" encoding="utf-8"?>
<!-- Generator: Adobe Illustrator 24.0.0, SVG Export Plug-In . SVG Version: 6.00 Build 0)  -->
<svg version="1.1" id="Capa_1" xmlns="http://www.w3.org/2000/svg" xmlns:xlink="http://www.w3.org/1999/xlink" x="0px" y="0px"
	 viewBox="0 0 330 400" style="enable-background:new 0 0 330 400;" xml:space="preserve">
<style type="text/css">
	.st0{fill:#5B8C85;}
	.st1{fill:#ECCE6D;}
</style>
<g>
	<g>
		<path class="st0" d="M33.54,176.32c0-32.82,0-65.63,0-98.45c0-6.78-0.08-13.57,0.04-20.35c0.37-20.99,17.56-38.25,38.58-38.42
			c24.22-0.19,48.45-0.06,72.67-0.06c28.44,0,56.87,0,85.31,0c9.13,0,18.26-0.06,27.4,0.02c18.9,0.17,36.11,15.61,37.83,34.43
			c0.73,7.98,0.4,16.06,0.4,24.1c0.03,37.36,0.02,74.71,0.01,112.07c0,35.06,0.04,70.12-0.03,105.18
			c-0.04,19.2-15.37,36.29-34.54,38.27c-6.28,0.65-12.67,0.4-19,0.4c-56.6,0.02-113.19,0.02-169.79,0.01
			c-20.77,0-38.79-17.72-38.84-38.4C33.48,255.51,33.55,215.91,33.54,176.32C33.55,176.32,33.54,176.32,33.54,176.32z M59.79,176.23
			C59.79,176.23,59.79,176.23,59.79,176.23c-0.01,28.49-0.01,56.99-0.01,85.48c0,10.66,0.01,21.33-0.01,31.99
			c-0.01,3.9,1.17,7.33,4.04,10.04c2.87,2.71,6.38,3.56,10.25,3.56c60.75-0.03,121.49-0.03,182.24-0.03
			c7.44,0,13.18-5.6,13.19-13.01c0.03-30.52,0.02-61.04,0.02-91.55c0-37.3,0-74.6,0-111.9c0-10.66,0-21.33,0-31.99
			c0-4.55-1.62-8.34-5.32-11.09c-2.71-2.02-5.85-2.48-9.16-2.48c-20.34,0.04-40.68,0.03-61.02,0.03c-40.19,0-80.38,0-120.56,0.01
			c-8.31,0-13.67,5.37-13.67,13.64c0,10.61,0,21.22,0,31.83C59.79,119.24,59.79,147.74,59.79,176.23z"/>
	</g>
	<g>
		<path class="st0" d="M142.21,123.77c16.77,1.81,30.13,9.36,39.69,23.25c6.02,8.74,9.61,20.95,8.82,29.15c-34.79,0-69.59,0-104.4,0
			c-1.7-19.31,14.69-49.38,48.34-52.35c-7.89-1.62-14.31-5.49-18.55-12.43c-4.27-6.98-5.09-14.48-2.5-22.23
			c3.9-11.63,15.33-18.81,27.68-17.58c11.74,1.18,21.53,10.61,23.1,22.36c0.95,7.15-0.67,13.71-5.05,19.48
			C155.03,119.11,149.25,122.43,142.21,123.77z"/>
	</g>
	<g>
		<path class="st0" d="M243.25,202.59c0,8.71,0,17.28,0,25.99c-52.39,0-104.72,0-157.16,0c0-8.68,0-17.28,0-25.99
			C138.48,202.59,190.77,202.59,243.25,202.59z"/>
	</g>
	<g>
		<path class="st0" d="M86.08,280.97c0-8.68,0-17.24,0-25.96c52.37,0,104.7,0,157.13,0c0,8.63,0,17.24,0,25.96
			C190.86,280.97,138.58,280.97,86.08,280.97z"/>
	</g>
	<g>
		<path class="st0" d="M243.25,97.72c0,8.71,0,17.28,0,25.99c-8.71,0-17.35,0-26.1,0c0-8.67,0-17.27,0-25.99
			C225.85,97.72,234.45,97.72,243.25,97.72z"/>
	</g>
	<g>
		<path class="st0" d="M243.22,150.14c0,8.74,0,17.35,0,26.06c-8.7,0-17.3,0-26.03,0c0-8.67,0-17.32,0-26.06
			C225.86,150.14,234.46,150.14,243.22,150.14z"/>
	</g>
	<path class="st1" d="M304.03,385H25.97c-1.86,0-3.36-1.5-3.36-3.36v-19.6c0-1.86,1.5-3.36,3.36-3.36h278.05
		c1.86,0,3.36,1.5,3.36,3.36v19.6C307.38,383.5,305.88,385,304.03,385z"/>
</g>
</svg>
