<?xml version="1.0" encoding="utf-8"?>
<!-- Generator: Adobe Illustrator 24.0.0, SVG Export Plug-In . SVG Version: 6.00 Build 0)  -->
<svg version="1.1" id="Capa_1" xmlns="http://www.w3.org/2000/svg" xmlns:xlink="http://www.w3.org/1999/xlink" x="0px" y="0px"
	 viewBox="0 0 137 80" style="enable-background:new 0 0 137 80;" xml:space="preserve">
<style type="text/css">
	.st0{fill:#5B8C85;}
	.st1{fill:#FFFFFF;}
</style>
<g>
	<g>
		<path class="st0" d="M33.08,71.98C15.39,71.98,1,57.59,1,39.9S15.39,7.82,33.08,7.82S65.16,22.21,65.16,39.9
			S50.77,71.98,33.08,71.98z M33.08,9.66C16.4,9.66,2.83,23.22,2.83,39.9S16.4,70.15,33.08,70.15c16.68,0,30.24-13.57,30.24-30.24
			S49.76,9.66,33.08,9.66z"/>
	</g>
	<g>
		<g>
			<circle class="st0" cx="33.08" cy="10.37" r="8.45"/>
			<path class="st1" d="M33.08,2.83c4.16,0,7.54,3.37,7.54,7.54s-3.37,7.54-7.54,7.54s-7.54-3.37-7.54-7.54S28.92,2.83,33.08,2.83
				 M33.08,1c-5.17,0-9.37,4.2-9.37,9.37s4.2,9.37,9.37,9.37s9.37-4.2,9.37-9.37S38.24,1,33.08,1L33.08,1z"/>
		</g>
		<circle class="st1" cx="33.08" cy="10.37" r="5.09"/>
	</g>
	<g>
		<g>
			<circle class="st0" cx="33.08" cy="70.25" r="8.45"/>
			<path class="st1" d="M33.08,62.71c4.16,0,7.54,3.37,7.54,7.54c0,4.16-3.37,7.54-7.54,7.54s-7.54-3.37-7.54-7.54
				C25.54,66.09,28.92,62.71,33.08,62.71 M33.08,60.88c-5.17,0-9.37,4.2-9.37,9.37s4.2,9.37,9.37,9.37s9.37-4.2,9.37-9.37
				S38.24,60.88,33.08,60.88L33.08,60.88z"/>
		</g>
		<circle class="st1" cx="33.08" cy="70.25" r="5.09"/>
	</g>
	<g>
		<g>
			<path class="st0" d="M11.91,27.59c-2.26,0-4.38-0.88-5.98-2.48c-1.6-1.6-2.48-3.72-2.48-5.98c0-2.26,0.88-4.38,2.48-5.98
				s3.72-2.48,5.98-2.48c2.26,0,4.38,0.88,5.98,2.48c1.6,1.6,2.48,3.72,2.48,5.98c0,2.26-0.88,4.38-2.48,5.98
				C16.29,26.71,14.17,27.59,11.91,27.59z"/>
			<path class="st1" d="M11.91,11.6c1.93,0,3.86,0.74,5.33,2.21c2.94,2.94,2.94,7.71,0,10.66c-1.47,1.47-3.4,2.21-5.33,2.21
				s-3.86-0.74-5.33-2.21c-2.94-2.94-2.94-7.71,0-10.66C8.05,12.34,9.98,11.6,11.91,11.6 M11.91,9.77c-2.5,0-4.86,0.97-6.62,2.74
				c-1.77,1.77-2.74,4.12-2.74,6.62c0,2.5,0.97,4.86,2.74,6.62c1.77,1.77,4.12,2.74,6.62,2.74c2.5,0,4.86-0.97,6.62-2.74
				c1.77-1.77,2.74-4.12,2.74-6.62c0-2.5-0.97-4.86-2.74-6.62C16.76,10.74,14.41,9.77,11.91,9.77L11.91,9.77z"/>
		</g>
		<circle class="st1" cx="11.91" cy="19.14" r="5.09"/>
	</g>
	<g>
		<g>
			<path class="st0" d="M54.25,69.93c-2.26,0-4.38-0.88-5.98-2.48c-1.6-1.6-2.48-3.72-2.48-5.98c0-2.26,0.88-4.38,2.48-5.98
				c1.6-1.6,3.72-2.48,5.98-2.48c2.26,0,4.38,0.88,5.98,2.48c1.6,1.6,2.48,3.72,2.48,5.98c0,2.26-0.88,4.38-2.48,5.98
				C58.63,69.05,56.51,69.93,54.25,69.93z"/>
			<path class="st1" d="M54.25,53.94c1.93,0,3.86,0.74,5.33,2.21c2.94,2.94,2.94,7.71,0,10.66c-1.47,1.47-3.4,2.21-5.33,2.21
				c-1.93,0-3.86-0.74-5.33-2.21c-2.94-2.94-2.94-7.71,0-10.66C50.39,54.68,52.32,53.94,54.25,53.94 M54.25,52.11
				c-2.5,0-4.86,0.97-6.62,2.74c-1.77,1.77-2.74,4.12-2.74,6.62c0,2.5,0.97,4.86,2.74,6.62s4.12,2.74,6.62,2.74
				c2.5,0,4.86-0.97,6.62-2.74c1.77-1.77,2.74-4.12,2.74-6.62c0-2.5-0.97-4.86-2.74-6.62C59.1,53.08,56.75,52.11,54.25,52.11
				L54.25,52.11z"/>
		</g>
		<circle class="st1" cx="54.25" cy="61.48" r="5.09"/>
	</g>
	<g>
		<g>
			<path class="st0" d="M54.25,27.59c-2.26,0-4.38-0.88-5.98-2.48c-1.6-1.6-2.48-3.72-2.48-5.98c0-2.26,0.88-4.38,2.48-5.98
				c1.6-1.6,3.72-2.48,5.98-2.48c2.26,0,4.38,0.88,5.98,2.48c1.6,1.6,2.48,3.72,2.48,5.98c0,2.26-0.88,4.38-2.48,5.98
				C58.63,26.71,56.51,27.59,54.25,27.59z"/>
			<path class="st1" d="M54.25,11.6c1.93,0,3.86,0.74,5.33,2.21c2.94,2.94,2.94,7.71,0,10.66c-1.47,1.47-3.4,2.21-5.33,2.21
				c-1.93,0-3.86-0.74-5.33-2.21c-2.94-2.94-2.94-7.71,0-10.66C50.39,12.34,52.32,11.6,54.25,11.6 M54.25,9.77
				c-2.5,0-4.86,0.97-6.62,2.74c-1.77,1.77-2.74,4.12-2.74,6.62c0,2.5,0.97,4.86,2.74,6.62c1.77,1.77,4.12,2.74,6.62,2.74
				c2.5,0,4.86-0.97,6.62-2.74c1.77-1.77,2.74-4.12,2.74-6.62c0-2.5-0.97-4.86-2.74-6.62S56.75,9.77,54.25,9.77L54.25,9.77z"/>
		</g>
		<circle class="st1" cx="54.25" cy="19.14" r="5.09"/>
	</g>
	<g>
		<path class="st0" d="M11.91,69.93c-2.26,0-4.38-0.88-5.98-2.48c-1.6-1.6-2.48-3.72-2.48-5.98c0-2.26,0.88-4.38,2.48-5.98
			c1.6-1.6,3.72-2.48,5.98-2.48c2.26,0,4.38,0.88,5.98,2.48c1.6,1.6,2.48,3.72,2.48,5.98c0,2.26-0.88,4.38-2.48,5.98
			C16.29,69.05,14.17,69.93,11.91,69.93z"/>
		<path class="st1" d="M11.91,53.94c1.93,0,3.86,0.74,5.33,2.21c2.94,2.94,2.94,7.71,0,10.66c-1.47,1.47-3.4,2.21-5.33,2.21
			s-3.86-0.74-5.33-2.21c-2.94-2.94-2.94-7.71,0-10.66C8.05,54.68,9.98,53.94,11.91,53.94 M11.91,52.11c-2.5,0-4.86,0.97-6.62,2.74
			c-1.77,1.77-2.74,4.12-2.74,6.62c0,2.5,0.97,4.86,2.74,6.62s4.12,2.74,6.62,2.74c2.5,0,4.86-0.97,6.62-2.74s2.74-4.12,2.74-6.62
			c0-2.5-0.97-4.86-2.74-6.62C16.76,53.08,14.41,52.11,11.91,52.11L11.91,52.11z"/>
	</g>
	<circle class="st1" cx="11.91" cy="61.48" r="5.09"/>
</g>
<g>
	<g>
		<path class="st0" d="M101.52,65.13c-0.89,0-1.61-0.72-1.61-1.61V9.45c0-0.89,0.72-1.61,1.61-1.61c0.89,0,1.61,0.72,1.61,1.61
			v54.08C103.13,64.41,102.41,65.13,101.52,65.13z"/>
	</g>
	<g>
		<path class="st0" d="M101.61,66.61L81.58,46.58c-0.63-0.63-0.63-1.64,0-2.27c0.63-0.63,1.64-0.63,2.27,0l17.77,17.77l17.59-17.59
			c0.63-0.63,1.64-0.63,2.27,0c0.63,0.63,0.63,1.64,0,2.27L101.61,66.61z"/>
	</g>
	<g>
		<path class="st0" d="M101.52,77.76c-8.48,0-16.61-3.31-22.9-9.33c-6.23-5.96-10.17-14.09-11.1-22.9
			c-0.05-0.47,0.29-0.89,0.76-0.93c0.47-0.05,0.89,0.29,0.93,0.76c1.84,17.51,15.73,30.71,32.3,30.71s30.46-13.2,32.3-30.71
			c0.05-0.47,0.47-0.8,0.93-0.76c0.47,0.05,0.81,0.47,0.76,0.93c-0.93,8.81-4.87,16.94-11.1,22.9
			C118.13,74.45,110,77.76,101.52,77.76z"/>
	</g>
</g>
</svg>
