<?xml version="1.0" encoding="utf-8"?>
<!-- Generator: Adobe Illustrator 24.0.0, SVG Export Plug-In . SVG Version: 6.00 Build 0)  -->
<svg version="1.1" id="Capa_1" xmlns="http://www.w3.org/2000/svg" xmlns:xlink="http://www.w3.org/1999/xlink" x="0px" y="0px"
	 viewBox="0 0 66 78" style="enable-background:new 0 0 66 78;" xml:space="preserve">
<style type="text/css">
	.st0{fill:#5B8C85;}
	.st1{fill:#FFFFFF;}
</style>
<g>
	<g>
		<path class="st0" d="M33.08,70.98C15.39,70.98,1,56.59,1,38.9S15.39,6.82,33.08,6.82S65.16,21.21,65.16,38.9
			S50.77,70.98,33.08,70.98z M33.08,8.66C16.4,8.66,2.83,22.22,2.83,38.9S16.4,69.15,33.08,69.15c16.68,0,30.24-13.57,30.24-30.24
			S49.76,8.66,33.08,8.66z"/>
	</g>
	<g>
		<g>
			<circle class="st0" cx="33.08" cy="9.37" r="8.45"/>
			<path class="st1" d="M33.08,1.83c4.16,0,7.54,3.37,7.54,7.54s-3.37,7.54-7.54,7.54s-7.54-3.37-7.54-7.54S28.92,1.83,33.08,1.83
				 M33.08,0c-5.17,0-9.37,4.2-9.37,9.37s4.2,9.37,9.37,9.37s9.37-4.2,9.37-9.37S38.24,0,33.08,0L33.08,0z"/>
		</g>
		<circle class="st1" cx="33.08" cy="9.37" r="5.09"/>
	</g>
	<g>
		<g>
			<circle class="st0" cx="33.08" cy="69.25" r="8.45"/>
			<path class="st1" d="M33.08,61.71c4.16,0,7.54,3.37,7.54,7.54c0,4.16-3.37,7.54-7.54,7.54s-7.54-3.37-7.54-7.54
				C25.54,65.09,28.92,61.71,33.08,61.71 M33.08,59.88c-5.17,0-9.37,4.2-9.37,9.37s4.2,9.37,9.37,9.37s9.37-4.2,9.37-9.37
				S38.24,59.88,33.08,59.88L33.08,59.88z"/>
		</g>
		<circle class="st1" cx="33.08" cy="69.25" r="5.09"/>
	</g>
	<g>
		<g>
			<path class="st0" d="M11.91,26.59c-2.26,0-4.38-0.88-5.98-2.48c-1.6-1.6-2.48-3.72-2.48-5.98c0-2.26,0.88-4.38,2.48-5.98
				s3.72-2.48,5.98-2.48c2.26,0,4.38,0.88,5.98,2.48c1.6,1.6,2.48,3.72,2.48,5.98c0,2.26-0.88,4.38-2.48,5.98
				C16.29,25.71,14.17,26.59,11.91,26.59z"/>
			<path class="st1" d="M11.91,10.6c1.93,0,3.86,0.74,5.33,2.21c2.94,2.94,2.94,7.71,0,10.66c-1.47,1.47-3.4,2.21-5.33,2.21
				s-3.86-0.74-5.33-2.21c-2.94-2.94-2.94-7.71,0-10.66C8.05,11.34,9.98,10.6,11.91,10.6 M11.91,8.77c-2.5,0-4.86,0.97-6.62,2.74
				c-1.77,1.77-2.74,4.12-2.74,6.62c0,2.5,0.97,4.86,2.74,6.62c1.77,1.77,4.12,2.74,6.62,2.74c2.5,0,4.86-0.97,6.62-2.74
				c1.77-1.77,2.74-4.12,2.74-6.62c0-2.5-0.97-4.86-2.74-6.62C16.76,9.74,14.41,8.77,11.91,8.77L11.91,8.77z"/>
		</g>
		<circle class="st1" cx="11.91" cy="18.14" r="5.09"/>
	</g>
	<g>
		<g>
			<path class="st0" d="M54.25,68.93c-2.26,0-4.38-0.88-5.98-2.48c-1.6-1.6-2.48-3.72-2.48-5.98c0-2.26,0.88-4.38,2.48-5.98
				c1.6-1.6,3.72-2.48,5.98-2.48c2.26,0,4.38,0.88,5.98,2.48c1.6,1.6,2.48,3.72,2.48,5.98c0,2.26-0.88,4.38-2.48,5.98
				C58.63,68.05,56.51,68.93,54.25,68.93z"/>
			<path class="st1" d="M54.25,52.94c1.93,0,3.86,0.74,5.33,2.21c2.94,2.94,2.94,7.71,0,10.66c-1.47,1.47-3.4,2.21-5.33,2.21
				c-1.93,0-3.86-0.74-5.33-2.21c-2.94-2.94-2.94-7.71,0-10.66C50.39,53.68,52.32,52.94,54.25,52.94 M54.25,51.11
				c-2.5,0-4.86,0.97-6.62,2.74c-1.77,1.77-2.74,4.12-2.74,6.62c0,2.5,0.97,4.86,2.74,6.62s4.12,2.74,6.62,2.74
				c2.5,0,4.86-0.97,6.62-2.74c1.77-1.77,2.74-4.12,2.74-6.62c0-2.5-0.97-4.86-2.74-6.62C59.1,52.08,56.75,51.11,54.25,51.11
				L54.25,51.11z"/>
		</g>
		<circle class="st1" cx="54.25" cy="60.48" r="5.09"/>
	</g>
	<g>
		<g>
			<path class="st0" d="M54.25,26.59c-2.26,0-4.38-0.88-5.98-2.48c-1.6-1.6-2.48-3.72-2.48-5.98c0-2.26,0.88-4.38,2.48-5.98
				c1.6-1.6,3.72-2.48,5.98-2.48c2.26,0,4.38,0.88,5.98,2.48c1.6,1.6,2.48,3.72,2.48,5.98c0,2.26-0.88,4.38-2.48,5.98
				C58.63,25.71,56.51,26.59,54.25,26.59z"/>
			<path class="st1" d="M54.25,10.6c1.93,0,3.86,0.74,5.33,2.21c2.94,2.94,2.94,7.71,0,10.66c-1.47,1.47-3.4,2.21-5.33,2.21
				c-1.93,0-3.86-0.74-5.33-2.21c-2.94-2.94-2.94-7.71,0-10.66C50.39,11.34,52.32,10.6,54.25,10.6 M54.25,8.77
				c-2.5,0-4.86,0.97-6.62,2.74c-1.77,1.77-2.74,4.12-2.74,6.62c0,2.5,0.97,4.86,2.74,6.62c1.77,1.77,4.12,2.74,6.62,2.74
				c2.5,0,4.86-0.97,6.62-2.74c1.77-1.77,2.74-4.12,2.74-6.62c0-2.5-0.97-4.86-2.74-6.62S56.75,8.77,54.25,8.77L54.25,8.77z"/>
		</g>
		<circle class="st1" cx="54.25" cy="18.14" r="5.09"/>
	</g>
	<g>
		<path class="st0" d="M11.91,68.93c-2.26,0-4.38-0.88-5.98-2.48c-1.6-1.6-2.48-3.72-2.48-5.98c0-2.26,0.88-4.38,2.48-5.98
			c1.6-1.6,3.72-2.48,5.98-2.48c2.26,0,4.38,0.88,5.98,2.48c1.6,1.6,2.48,3.72,2.48,5.98c0,2.26-0.88,4.38-2.48,5.98
			C16.29,68.05,14.17,68.93,11.91,68.93z"/>
		<path class="st1" d="M11.91,52.94c1.93,0,3.86,0.74,5.33,2.21c2.94,2.94,2.94,7.71,0,10.66c-1.47,1.47-3.4,2.21-5.33,2.21
			s-3.86-0.74-5.33-2.21c-2.94-2.94-2.94-7.71,0-10.66C8.05,53.68,9.98,52.94,11.91,52.94 M11.91,51.11c-2.5,0-4.86,0.97-6.62,2.74
			c-1.77,1.77-2.74,4.12-2.74,6.62c0,2.5,0.97,4.86,2.74,6.62s4.12,2.74,6.62,2.74c2.5,0,4.86-0.97,6.62-2.74s2.74-4.12,2.74-6.62
			c0-2.5-0.97-4.86-2.74-6.62C16.76,52.08,14.41,51.11,11.91,51.11L11.91,51.11z"/>
	</g>
	<circle class="st1" cx="11.91" cy="60.48" r="5.09"/>
</g>
</svg>
